<svg xmlns="http://www.w3.org/2000/svg" viewBox="0 0 1080 480" width="1080" height="480" font-family="monospace" font-size="11">
<title>Memory paths: timing-derived effective transfer rate</title>
<metadata>schema_version=p43.v1; unit=P4.3; role=deterministic visual sibling; authoritative_bundle_envelope=analysis_manifest.json; not a standalone provenance envelope</metadata>
<rect x="0" y="0" width="1080" height="480" fill="#ffffff" stroke="none"/>
<text x="24" y="25" font-size="16" font-weight="bold" fill="#1f2937">Memory paths: timing-derived effective transfer rate</text>
<text x="24" y="44" font-size="10" fill="#4b5563">Focused y-scale; dot = cross-campaign mean; whisker = min-max; n=3 final campaigns; x = bytes in flight</text>
<text x="219.3" y="70.0" text-anchor="middle" font-weight="bold">stages=2</text>
<rect x="62.0" y="82.0" width="314.7" height="290.0" fill="none" stroke="#333333" stroke-width="1"/>
<line x1="62.0" y1="372.0" x2="376.7" y2="372.0" stroke="#e0e0e0" stroke-width="1"/>
<text x="57.0" y="375.0" text-anchor="end">735.3</text>
<line x1="62.0" y1="299.5" x2="376.7" y2="299.5" stroke="#e0e0e0" stroke-width="1"/>
<text x="57.0" y="302.5" text-anchor="end">2424</text>
<line x1="62.0" y1="227.0" x2="376.7" y2="227.0" stroke="#e0e0e0" stroke-width="1"/>
<text x="57.0" y="230.0" text-anchor="end">4113</text>
<line x1="62.0" y1="154.5" x2="376.7" y2="154.5" stroke="#e0e0e0" stroke-width="1"/>
<text x="57.0" y="157.5" text-anchor="end">5801</text>
<line x1="62.0" y1="82.0" x2="376.7" y2="82.0" stroke="#e0e0e0" stroke-width="1"/>
<text x="57.0" y="85.0" text-anchor="end">7490</text>
<text x="10.0" y="227.0" text-anchor="middle" transform="rotate(-90 10.0 227.0)">GB/s</text>
<text x="114.4" y="388.0" text-anchor="middle">16 KiB</text>
<text x="219.3" y="388.0" text-anchor="middle">32 KiB</text>
<text x="324.2" y="388.0" text-anchor="middle">64 KiB</text>
<line x1="114.4" y1="269.3" x2="114.4" y2="269.3" stroke="#1f4e79" stroke-width="1.5"/>
<line x1="219.3" y1="181.8" x2="219.3" y2="181.6" stroke="#1f4e79" stroke-width="1.5"/>
<line x1="324.2" y1="105.4" x2="324.2" y2="105.1" stroke="#1f4e79" stroke-width="1.5"/>
<polyline points="114.4,269.3 219.3,181.7 324.2,105.2" fill="none" stroke="#1f4e79" stroke-width="2"/>
<circle cx="114.4" cy="269.3" r="4" fill="#1f4e79" stroke="#ffffff" stroke-width="1"/>
<circle cx="219.3" cy="181.7" r="4" fill="#1f4e79" stroke="#ffffff" stroke-width="1"/>
<circle cx="324.2" cy="105.2" r="4" fill="#1f4e79" stroke="#ffffff" stroke-width="1"/>
<rect x="68.0" y="88.0" width="10" height="10" fill="#1f4e79"/>
<text x="82.0" y="97.0">ldgsts</text>
<line x1="114.4" y1="273.2" x2="114.4" y2="273.1" stroke="#c05621" stroke-width="1.5"/>
<line x1="219.3" y1="186.7" x2="219.3" y2="186.5" stroke="#c05621" stroke-width="1.5"/>
<line x1="324.2" y1="105.0" x2="324.2" y2="104.8" stroke="#c05621" stroke-width="1.5"/>
<polyline points="114.4,273.1 219.3,186.6 324.2,104.9" fill="none" stroke="#c05621" stroke-width="2"/>
<circle cx="114.4" cy="273.1" r="4" fill="#c05621" stroke="#ffffff" stroke-width="1"/>
<circle cx="219.3" cy="186.6" r="4" fill="#c05621" stroke="#ffffff" stroke-width="1"/>
<circle cx="324.2" cy="104.9" r="4" fill="#c05621" stroke="#ffffff" stroke-width="1"/>
<rect x="68.0" y="102.0" width="10" height="10" fill="#c05621"/>
<text x="82.0" y="111.0">tma</text>
<text x="556.0" y="70.0" text-anchor="middle" font-weight="bold">stages=4</text>
<rect x="398.7" y="82.0" width="314.7" height="290.0" fill="none" stroke="#333333" stroke-width="1"/>
<line x1="398.7" y1="372.0" x2="713.3" y2="372.0" stroke="#e0e0e0" stroke-width="1"/>
<text x="393.7" y="375.0" text-anchor="end">735.3</text>
<line x1="398.7" y1="299.5" x2="713.3" y2="299.5" stroke="#e0e0e0" stroke-width="1"/>
<text x="393.7" y="302.5" text-anchor="end">2424</text>
<line x1="398.7" y1="227.0" x2="713.3" y2="227.0" stroke="#e0e0e0" stroke-width="1"/>
<text x="393.7" y="230.0" text-anchor="end">4113</text>
<line x1="398.7" y1="154.5" x2="713.3" y2="154.5" stroke="#e0e0e0" stroke-width="1"/>
<text x="393.7" y="157.5" text-anchor="end">5801</text>
<line x1="398.7" y1="82.0" x2="713.3" y2="82.0" stroke="#e0e0e0" stroke-width="1"/>
<text x="393.7" y="85.0" text-anchor="end">7490</text>
<text x="346.7" y="227.0" text-anchor="middle" transform="rotate(-90 346.7 227.0)">GB/s</text>
<text x="451.1" y="388.0" text-anchor="middle">16 KiB</text>
<text x="556.0" y="388.0" text-anchor="middle">32 KiB</text>
<text x="660.9" y="388.0" text-anchor="middle">64 KiB</text>
<line x1="451.1" y1="264.8" x2="451.1" y2="264.7" stroke="#1f4e79" stroke-width="1.5"/>
<line x1="556.0" y1="183.4" x2="556.0" y2="183.2" stroke="#1f4e79" stroke-width="1.5"/>
<line x1="660.9" y1="102.1" x2="660.9" y2="102.0" stroke="#1f4e79" stroke-width="1.5"/>
<polyline points="451.1,264.7 556.0,183.3 660.9,102.0" fill="none" stroke="#1f4e79" stroke-width="2"/>
<circle cx="451.1" cy="264.7" r="4" fill="#1f4e79" stroke="#ffffff" stroke-width="1"/>
<circle cx="556.0" cy="183.3" r="4" fill="#1f4e79" stroke="#ffffff" stroke-width="1"/>
<circle cx="660.9" cy="102.0" r="4" fill="#1f4e79" stroke="#ffffff" stroke-width="1"/>
<rect x="404.7" y="88.0" width="10" height="10" fill="#1f4e79"/>
<text x="418.7" y="97.0">ldgsts</text>
<line x1="451.1" y1="300.9" x2="451.1" y2="300.7" stroke="#c05621" stroke-width="1.5"/>
<line x1="556.0" y1="202.9" x2="556.0" y2="202.8" stroke="#c05621" stroke-width="1.5"/>
<line x1="660.9" y1="104.8" x2="660.9" y2="104.5" stroke="#c05621" stroke-width="1.5"/>
<polyline points="451.1,300.8 556.0,202.9 660.9,104.7" fill="none" stroke="#c05621" stroke-width="2"/>
<circle cx="451.1" cy="300.8" r="4" fill="#c05621" stroke="#ffffff" stroke-width="1"/>
<circle cx="556.0" cy="202.9" r="4" fill="#c05621" stroke="#ffffff" stroke-width="1"/>
<circle cx="660.9" cy="104.7" r="4" fill="#c05621" stroke="#ffffff" stroke-width="1"/>
<rect x="404.7" y="102.0" width="10" height="10" fill="#c05621"/>
<text x="418.7" y="111.0">tma</text>
<text x="892.7" y="70.0" text-anchor="middle" font-weight="bold">stages=8</text>
<rect x="735.3" y="82.0" width="314.7" height="290.0" fill="none" stroke="#333333" stroke-width="1"/>
<line x1="735.3" y1="372.0" x2="1050.0" y2="372.0" stroke="#e0e0e0" stroke-width="1"/>
<text x="730.3" y="375.0" text-anchor="end">735.3</text>
<line x1="735.3" y1="299.5" x2="1050.0" y2="299.5" stroke="#e0e0e0" stroke-width="1"/>
<text x="730.3" y="302.5" text-anchor="end">2424</text>
<line x1="735.3" y1="227.0" x2="1050.0" y2="227.0" stroke="#e0e0e0" stroke-width="1"/>
<text x="730.3" y="230.0" text-anchor="end">4113</text>
<line x1="735.3" y1="154.5" x2="1050.0" y2="154.5" stroke="#e0e0e0" stroke-width="1"/>
<text x="730.3" y="157.5" text-anchor="end">5801</text>
<line x1="735.3" y1="82.0" x2="1050.0" y2="82.0" stroke="#e0e0e0" stroke-width="1"/>
<text x="730.3" y="85.0" text-anchor="end">7490</text>
<text x="683.3" y="227.0" text-anchor="middle" transform="rotate(-90 683.3 227.0)">GB/s</text>
<text x="787.8" y="388.0" text-anchor="middle">16 KiB</text>
<text x="892.7" y="388.0" text-anchor="middle">32 KiB</text>
<text x="997.6" y="388.0" text-anchor="middle">64 KiB</text>
<line x1="787.8" y1="317.7" x2="787.8" y2="317.5" stroke="#1f4e79" stroke-width="1.5"/>
<line x1="892.7" y1="246.0" x2="892.7" y2="245.8" stroke="#1f4e79" stroke-width="1.5"/>
<line x1="997.6" y1="116.1" x2="997.6" y2="115.9" stroke="#1f4e79" stroke-width="1.5"/>
<polyline points="787.8,317.6 892.7,245.9 997.6,116.0" fill="none" stroke="#1f4e79" stroke-width="2"/>
<circle cx="787.8" cy="317.6" r="4" fill="#1f4e79" stroke="#ffffff" stroke-width="1"/>
<circle cx="892.7" cy="245.9" r="4" fill="#1f4e79" stroke="#ffffff" stroke-width="1"/>
<circle cx="997.6" cy="116.0" r="4" fill="#1f4e79" stroke="#ffffff" stroke-width="1"/>
<rect x="741.3" y="88.0" width="10" height="10" fill="#1f4e79"/>
<text x="755.3" y="97.0">ldgsts</text>
<line x1="787.8" y1="352.0" x2="787.8" y2="351.9" stroke="#c05621" stroke-width="1.5"/>
<line x1="892.7" y1="300.6" x2="892.7" y2="300.4" stroke="#c05621" stroke-width="1.5"/>
<line x1="997.6" y1="197.7" x2="997.6" y2="197.4" stroke="#c05621" stroke-width="1.5"/>
<polyline points="787.8,352.0 892.7,300.5 997.6,197.5" fill="none" stroke="#c05621" stroke-width="2"/>
<circle cx="787.8" cy="352.0" r="4" fill="#c05621" stroke="#ffffff" stroke-width="1"/>
<circle cx="892.7" cy="300.5" r="4" fill="#c05621" stroke="#ffffff" stroke-width="1"/>
<circle cx="997.6" cy="197.5" r="4" fill="#c05621" stroke="#ffffff" stroke-width="1"/>
<rect x="741.3" y="102.0" width="10" height="10" fill="#c05621"/>
<text x="755.3" y="111.0">tma</text>
<text x="18" y="444" font-size="10" fill="#4b5563">
<tspan x="18" y="444">n=3 final campaigns; the vertical line is the min-max whisker over exactly 3 campaign-level values, one per final campaign. Derived effective</tspan>
<tspan x="18" y="457">transfer rate of a streaming microbenchmark (logical useful_bytes / measured kernel time), NOT measured HBM/DRAM bandwidth and not GEMM traffic; not</tspan>
<tspan x="18" y="470">an HBM saturation threshold.</tspan>
</text>
</svg>
